# xmcd
#
# Track frame offsets: 
#        150
#        20853
#        44026
#        62530
#        86897
#        103577
#        126454
#        146512
#        170733
#        198272
#        211504
#        225003
#        234391
#
# Disc length: 3380 seconds
#
# Revision: 0
# Processed by: cddbd v1.5.2PL0 Copyright (c) Steve Scherf et al.
# Submitted via: ExactAudioCopy v1.0b3
#
DISCID=b20d320d
DTITLE=Brett Wellman and the Stone Cold Blues Band - All I Had Was Gone
DYEAR=2013
DGENRE=Blues
TTITLE0=All I Had Was Gone
TTITLE1=She's Alright With Me
TTITLE2=Empty World
TTITLE3=Up All Night Blues
TTITLE4=Why Did You Leave Me
TTITLE5=Breakfast in Bed
TTITLE6=Heart of Gold
TTITLE7=Recipe
TTITLE8=I Ain't Seen My Baby
TTITLE9=Too Proud
TTITLE10=She Got It All
TTITLE11=Happy Birthday Baby
TTITLE12=Fluffin' the Fuzzies
EXTD=
EXTT0=
EXTT1=
EXTT2=
EXTT3=
EXTT4=
EXTT5=
EXTT6=
EXTT7=
EXTT8=
EXTT9=
EXTT10=
EXTT11=
EXTT12=
PLAYORDER=
